<svg xmlns="http://www.w3.org/2000/svg" xmlns:svg="http://www.w3.org/2000/svg" id="svg11" width="3259.323" height="2300" version="1.1"><metadata id="metadata7">image/svg+xml</metadata><rect style="opacity:1;fill:#0c479d;fill-opacity:1;stroke:#0c479d;stroke-width:.50505;stroke-miterlimit:4;stroke-dasharray:none;stroke-opacity:1" id="rect954" width="1484.554" height="507.554" x="-3.776" y="1796.224" rx="25.128" ry="25.378"/><rect id="rect972" width="500" height="500" x="1750" y="0" rx="25" ry="25" style="opacity:1;fill:#0c479d;fill-opacity:1;stroke:none;stroke-width:.5;stroke-miterlimit:4;stroke-dasharray:none;stroke-opacity:1"/><rect id="rect974" width="470" height="470" x="1765" y="15" rx="25" ry="25" style="opacity:1;fill:#fff;fill-opacity:1;stroke:none;stroke-width:.5;stroke-miterlimit:4;stroke-dasharray:none;stroke-opacity:1"/><text id="text978" x="1808.951" y="435.763" style="font-style:normal;font-weight:400;font-size:40px;line-height:1.25;font-family:sans-serif;letter-spacing:0;word-spacing:0;fill:#0c479d;fill-opacity:1;stroke:none" xml:space="preserve"><tspan style="font-style:normal;font-variant:normal;font-weight:400;font-stretch:normal;font-size:469.333px;font-family:TratexSvart;-inkscape-font-specification:TratexSvart;fill:#0c479d;fill-opacity:1" id="tspan976" x="1808.951" y="435.763">V</tspan></text><rect style="opacity:1;fill:#fff;fill-opacity:1;stroke:#0c479d;stroke-width:.5;stroke-miterlimit:4;stroke-dasharray:none;stroke-opacity:1" id="rect819-2" width="1477" height="500" x="0" y="1800" rx="25" ry="25"/><rect style="opacity:1;fill:#0c479d;fill-opacity:1;stroke:none;stroke-width:.87731457;stroke-miterlimit:4;stroke-dasharray:none;stroke-opacity:1" id="rect819-5-6" width="1447" height="470" x="15" y="1815" rx="25" ry="25"/><text xml:space="preserve" style="font-style:normal;font-weight:400;font-size:40px;line-height:1.25;font-family:sans-serif;letter-spacing:0;word-spacing:0;fill:#fff;fill-opacity:1;stroke:none" id="text854-6" x="41.883" y="2239.763"><tspan id="tspan852-9" x="41.883" y="2239.763" style="font-style:normal;font-variant:normal;font-weight:400;font-stretch:normal;font-size:469.333px;font-family:TratexSvart;-inkscape-font-specification:TratexSvart;fill:#fff;fill-opacity:1">VUnit</tspan></text><rect id="rect980" width="1477" height="500" x="1750" y="1800" rx="25" ry="25" style="opacity:1;fill:#0c479d;fill-opacity:1;stroke:none;stroke-width:.85205632;stroke-miterlimit:4;stroke-dasharray:none;stroke-opacity:1"/><rect id="rect982" width="1447" height="470" x="1765" y="1815" rx="25" ry="25" style="opacity:1;fill:#fff;fill-opacity:1;stroke:none;stroke-width:.87731457;stroke-miterlimit:4;stroke-dasharray:none;stroke-opacity:1"/><text id="text986" x="1793.781" y="2242" style="font-style:normal;font-weight:400;font-size:40px;line-height:1.25;font-family:sans-serif;letter-spacing:0;word-spacing:0;fill:#0c479d;fill-opacity:1;stroke:none" xml:space="preserve"><tspan style="font-style:normal;font-variant:normal;font-weight:400;font-stretch:normal;font-size:469.333px;font-family:TratexSvart;-inkscape-font-specification:TratexSvart;fill:#0c479d;fill-opacity:1" id="tspan984" x="1793.781" y="2242">VUnit</tspan></text><text xml:space="preserve" style="font-style:normal;font-weight:400;font-size:40px;line-height:1.25;font-family:sans-serif;letter-spacing:0;word-spacing:0;fill:#fff;fill-opacity:1;stroke:#0c479d;stroke-width:.5;stroke-miterlimit:4;stroke-dasharray:none;stroke-opacity:1" id="text854-2-8" x="516.156" y="1034.792"><tspan id="tspan852-3-4" x="516.156" y="1034.792" style="font-style:normal;font-variant:normal;font-weight:400;font-stretch:normal;font-size:469.333px;font-family:TratexSvart;-inkscape-font-specification:TratexSvart;fill:#fff;fill-opacity:1;stroke:#0c479d;stroke-width:.5;stroke-miterlimit:4;stroke-dasharray:none;stroke-opacity:1">Unit</tspan></text><rect id="rect990" width="500" height="500" x="1750" y="600" rx="25" ry="25" style="opacity:1;fill:#0c479d;fill-opacity:1;stroke:none;stroke-width:.5;stroke-miterlimit:4;stroke-dasharray:none;stroke-opacity:1"/><rect id="rect992" width="470" height="470" x="1765" y="615" rx="25" ry="25" style="opacity:1;fill:#fff;fill-opacity:1;stroke:none;stroke-width:.5;stroke-miterlimit:4;stroke-dasharray:none;stroke-opacity:1"/><text id="text996" x="1811.069" y="1029.407" style="font-style:normal;font-weight:400;font-size:40px;line-height:1.25;font-family:sans-serif;letter-spacing:0;word-spacing:0;fill:#0c479d;fill-opacity:1;stroke:none" xml:space="preserve"><tspan style="font-style:normal;font-variant:normal;font-weight:400;font-stretch:normal;font-size:469.333px;font-family:TratexSvart;-inkscape-font-specification:TratexSvart;fill:#0c479d;fill-opacity:1" id="tspan994" x="1811.069" y="1029.407">V</tspan></text><text id="text1000" x="2258.156" y="1034.792" style="font-style:normal;font-weight:400;font-size:40px;line-height:1.25;font-family:sans-serif;letter-spacing:0;word-spacing:0;fill:#0c479d;fill-opacity:1;stroke:none" xml:space="preserve"><tspan style="font-style:normal;font-variant:normal;font-weight:400;font-stretch:normal;font-size:469.333px;font-family:TratexSvart;-inkscape-font-specification:TratexSvart;fill:#0c479d;fill-opacity:1" id="tspan998" x="2258.156" y="1034.792">Unit</tspan></text><text id="text876" x="516.156" y="1634.792" style="font-style:normal;font-weight:400;font-size:40px;line-height:1.25;font-family:sans-serif;letter-spacing:0;word-spacing:0;fill:#0c479d;fill-opacity:1;stroke:#fff;stroke-opacity:1;stroke-width:5;stroke-miterlimit:4;stroke-dasharray:none" xml:space="preserve"><tspan style="font-style:normal;font-variant:normal;font-weight:400;font-stretch:normal;font-size:469.333px;font-family:TratexSvart;-inkscape-font-specification:TratexSvart;fill:#0c479d;fill-opacity:1;stroke:#fff;stroke-opacity:1;stroke-width:5;stroke-miterlimit:4;stroke-dasharray:none" id="tspan874" x="516.156" y="1634.792">Unit</tspan></text><rect style="opacity:1;fill:#0c479d;fill-opacity:1;stroke:none;stroke-width:.5;stroke-miterlimit:4;stroke-dasharray:none;stroke-opacity:1" id="rect878" width="500" height="500" x="1750" y="1200" rx="25" ry="25"/><rect style="opacity:1;fill:#fff;fill-opacity:1;stroke:none;stroke-width:.5;stroke-miterlimit:4;stroke-dasharray:none;stroke-opacity:1" id="rect880" width="470" height="470" x="1765" y="1215" rx="25" ry="25"/><text xml:space="preserve" style="font-style:normal;font-weight:400;font-size:40px;line-height:1.25;font-family:sans-serif;letter-spacing:0;word-spacing:0;fill:#0c479d;fill-opacity:1;stroke:none" id="text884" x="1808.951" y="1640"><tspan id="tspan882" x="1808.951" y="1640" style="font-style:normal;font-variant:normal;font-weight:400;font-stretch:normal;font-size:469.333px;font-family:TratexSvart;-inkscape-font-specification:TratexSvart;fill:#0c479d;fill-opacity:1">V</tspan></text><text xml:space="preserve" style="font-style:normal;font-weight:400;font-size:40px;line-height:1.25;font-family:sans-serif;letter-spacing:0;word-spacing:0;fill:#fff;fill-opacity:1;stroke:#0c479d;stroke-width:.5;stroke-miterlimit:4;stroke-dasharray:none;stroke-opacity:1" id="text888" x="2258.156" y="1634.792"><tspan id="tspan886" x="2258.156" y="1634.792" style="font-style:normal;font-variant:normal;font-weight:400;font-stretch:normal;font-size:469.333px;font-family:TratexSvart;-inkscape-font-specification:TratexSvart;fill:#fff;fill-opacity:1;stroke:#0c479d;stroke-width:.5;stroke-miterlimit:4;stroke-dasharray:none;stroke-opacity:1">Unit</tspan></text><path style="fill:#0c479d;fill-opacity:1;fill-rule:nonzero;stroke-width:1.01508" id="path918" d="m 26.30738,1196.51 c -7.8218,0 -15.32015,3.0922 -20.84794,8.62 -5.52778,5.528 -8.62019,13.0263 -8.62019,20.838 v 446.3587 c 0,7.8116 3.09241,15.3102 8.62019,20.838 5.52779,5.5278 13.02614,8.6303 20.84794,8.6303 h 446.34864 c 7.8218,0 15.3203,-3.1025 20.84806,-8.6303 5.52779,-5.5278 8.62021,-13.0264 8.62021,-20.838 V 1225.968 c 0,-7.8117 -3.09242,-15.31 -8.62021,-20.838 -5.52776,-5.5278 -13.02626,-8.62 -20.84806,-8.62 z"/><path style="fill:#fff;fill-rule:nonzero;stroke-width:.999896" id="white_boarder-9" d="m 29.64511,1200.2903 c -7.70479,0 -15.09097,3.0459 -20.53605,8.491 -5.44509,5.4453 -8.49124,12.8315 -8.49124,20.5263 v 439.6802 c 0,7.6948 3.04615,15.0812 8.49124,20.5263 5.44508,5.4451 12.83126,8.5012 20.53605,8.5012 h 439.67127 c 7.70479,0 15.09111,-3.0561 20.53618,-8.5012 5.4451,-5.4451 8.49124,-12.8315 8.49124,-20.5263 v -439.6802 c 0,-7.6948 -3.04614,-15.081 -8.49124,-20.5263 -5.44507,-5.4451 -12.83139,-8.491 -20.53618,-8.491 z"/><path style="fill:#0c479d;fill-rule:nonzero" id="blue_background-7" d="m 17.48952,1664.7964 c 0,4.3212 1.7127,8.4631 4.75983,11.5098 3.05685,3.0565 7.18946,4.7692 11.51096,4.7692 h 431.48914 c 4.32175,0 8.45413,-1.7127 11.51123,-4.7692 3.047,-3.0467 4.75983,-7.1886 4.75983,-11.5098 v -431.4261 c 0,-4.3209 -1.71283,-8.463 -4.75983,-11.5098 -3.0571,-3.0564 -7.18948,-4.759 -11.51123,-4.759 H 33.76031 c -4.3215,0 -8.45412,1.7026 -11.51096,4.759 -3.04713,3.0468 -4.75983,7.1889 -4.75983,11.5098 z"/><polygon style="fill:#fff" id="v-4" points="301.032 437.341 199.183 437.341 80.223 62.536 151.925 62.536 250.515 371.343 348.291 62.536 419.992 62.536" transform="translate(-0.51508,1199.0952)"/><path style="fill:#0c479d;fill-opacity:1;fill-rule:nonzero;stroke-width:1.01508" id="path1617" d="m 26.30738,596.93373 c -7.8218,0 -15.32015,3.0922 -20.84794,8.62 -5.52778,5.528 -8.62019,13.0263 -8.62019,20.838 v 446.35867 c 0,7.8116 3.09241,15.3102 8.62019,20.838 5.52779,5.5278 13.02614,8.6303 20.84794,8.6303 h 446.34864 c 7.8218,0 15.3203,-3.1025 20.84806,-8.6303 5.52779,-5.5278 8.62021,-13.0264 8.62021,-20.838 V 626.39173 c 0,-7.8117 -3.09242,-15.31 -8.62021,-20.838 -5.52776,-5.5278 -13.02626,-8.62 -20.84806,-8.62 z"/><path style="fill:#fff;fill-rule:nonzero;stroke-width:.999896" id="path1619" d="m 29.64511,600.71403 c -7.70479,0 -15.09097,3.0459 -20.53605,8.491 -5.44509,5.4453 -8.49124,12.8315 -8.49124,20.5263 v 439.68017 c 0,7.6948 3.04615,15.0812 8.49124,20.5263 5.44508,5.4451 12.83126,8.5012 20.53605,8.5012 h 439.67127 c 7.70479,0 15.09111,-3.0561 20.53618,-8.5012 5.4451,-5.4451 8.49124,-12.8315 8.49124,-20.5263 V 629.73133 c 0,-7.6948 -3.04614,-15.081 -8.49124,-20.5263 -5.44507,-5.4451 -12.83139,-8.491 -20.53618,-8.491 z"/><path style="fill:#0c479d;fill-rule:nonzero" id="path1621" d="m 17.48952,1065.2201 c 0,4.3212 1.7127,8.4631 4.75983,11.5098 3.05685,3.0565 7.18946,4.7692 11.51096,4.7692 h 431.48914 c 4.32175,0 8.45413,-1.7127 11.51123,-4.7692 3.047,-3.0467 4.75983,-7.1886 4.75983,-11.5098 V 633.79403 c 0,-4.3209 -1.71283,-8.463 -4.75983,-11.5098 -3.0571,-3.0564 -7.18948,-4.759 -11.51123,-4.759 H 33.76031 c -4.3215,0 -8.45412,1.7026 -11.51096,4.759 -3.04713,3.0468 -4.75983,7.1889 -4.75983,11.5098 z"/><polygon style="fill:#fff" id="polygon1623" points="199.183 437.341 80.223 62.536 151.925 62.536 250.515 371.343 348.291 62.536 419.992 62.536 301.032 437.341" transform="translate(-0.51508,599.51893)"/><path style="fill:#0c479d;fill-opacity:1;fill-rule:nonzero;stroke-width:1.01508" id="path1705" d="m 26.30738,-2.3093065 c -7.8218,0 -15.32015,3.09219999 -20.84794,8.62 C -0.06834,11.838693 -3.16075,19.336993 -3.16075,27.148693 V 473.50736 c 0,7.8116 3.09241,15.3102 8.62019,20.838 5.52779,5.5278 13.02614,8.6303 20.84794,8.6303 h 446.34864 c 7.8218,0 15.3203,-3.1025 20.84806,-8.6303 5.52779,-5.5278 8.62021,-13.0264 8.62021,-20.838 V 27.148693 c 0,-7.8117 -3.09242,-15.31 -8.62021,-20.8379995 -5.52776,-5.52780001 -13.02626,-8.62 -20.84806,-8.62 z"/><path style="fill:#fff;fill-rule:nonzero;stroke-width:.999896" id="path1707" d="m 29.64511,1.4709935 c -7.70479,0 -15.09097,3.0459 -20.53605,8.491 C 3.66397,15.407293 0.61782,22.793493 0.61782,30.488293 V 470.16846 c 0,7.6948 3.04615,15.0812 8.49124,20.5263 5.44508,5.4451 12.83126,8.5012 20.53605,8.5012 h 439.67127 c 7.70479,0 15.09111,-3.0561 20.53618,-8.5012 5.4451,-5.4451 8.49124,-12.8315 8.49124,-20.5263 V 30.488293 c 0,-7.6948 -3.04614,-15.081 -8.49124,-20.5262995 -5.44507,-5.4451 -12.83139,-8.491 -20.53618,-8.491 z"/><path style="fill:#0c479d;fill-rule:nonzero" id="path1709" d="m 17.48952,465.97706 c 0,4.3212 1.7127,8.4631 4.75983,11.5098 3.05685,3.0565 7.18946,4.7692 11.51096,4.7692 h 431.48914 c 4.32175,0 8.45413,-1.7127 11.51123,-4.7692 3.047,-3.0467 4.75983,-7.1886 4.75983,-11.5098 V 34.550993 c 0,-4.3209 -1.71283,-8.463 -4.75983,-11.5098 -3.0571,-3.0564 -7.18948,-4.759 -11.51123,-4.759 H 33.76031 c -4.3215,0 -8.45412,1.7026 -11.51096,4.759 -3.04713,3.0468 -4.75983,7.1889 -4.75983,11.5098 z"/><polygon style="fill:#fff" id="polygon1711" points="80.223 62.536 151.925 62.536 250.515 371.343 348.291 62.536 419.992 62.536 301.032 437.341 199.183 437.341" transform="translate(-0.51508,0.27589349)"/></svg>